<svg xmlns="http://www.w3.org/2000/svg" xmlns:xlink="http://www.w3.org/1999/xlink" width="500" zoomAndPan="magnify" viewBox="0 0 375 374.999991" height="500" preserveAspectRatio="xMidYMid meet" version="1.0"><defs><clipPath id="893efdfb7b"><path d="M 231 163 L 337.605469 163 L 337.605469 214 L 231 214 Z M 231 163 " clip-rule="nonzero"/></clipPath></defs><path fill="#d2daff" d="M 34.816406 106.265625 C 31.304688 116.597656 29.050781 127.394531 28.128906 138.28125 C 26.351562 159.273438 28.09375 180.234375 30.464844 201.128906 C 35.527344 245.773438 60.601562 280.96875 84.988281 300.746094 C 165.917969 366.375 314.074219 323.976562 333.691406 262.15625 C 337.25 250.941406 336.25 240.121094 335.015625 226.8125 C 331.101562 184.476562 310.472656 171.894531 296.597656 126.945312 C 283.972656 86.035156 296.421875 81.433594 284.613281 63.246094 C 274.125 47.089844 253.699219 39.410156 236.03125 34.230469 C 215.90625 28.332031 194.875 26.03125 173.96875 25.4375 C 154.210938 24.875 134.242188 25.808594 115.101562 30.742188 C 76.453125 40.699219 47.640625 68.5625 34.816406 106.265625 " fill-opacity="1" fill-rule="nonzero"/><path fill="#ffffff" d="M 237.332031 77.394531 C 271.964844 130.773438 257.046875 201.921875 204.015625 236.3125 C 150.980469 270.707031 79.910156 255.3125 45.273438 201.9375 C 10.636719 148.558594 25.554688 77.410156 78.589844 43.019531 C 131.625 8.628906 202.695312 24.019531 237.332031 77.394531 " fill-opacity="1" fill-rule="nonzero"/><path fill="#d2daff" d="M 65.746094 63.628906 C 65.726562 64.46875 68.171875 65.667969 70.503906 64.15625 C 72.839844 62.640625 73.75 61.496094 76.371094 63.40625 C 78.996094 65.320312 83.21875 74.8125 86.613281 77.058594 C 90.003906 79.304688 93.605469 79.75 94.210938 76.855469 C 94.820312 73.960938 91.578125 69.390625 92.957031 66.832031 C 94.332031 64.269531 99.058594 54.53125 96.910156 50.371094 C 94.761719 46.203125 90.132812 45.035156 82.824219 48.664062 C 75.511719 52.292969 65.867188 57.433594 65.746094 63.628906 " fill-opacity="1" fill-rule="nonzero"/><path fill="#aac4ff" d="M 90.875 170.640625 C 90.191406 171.8125 90.21875 173.1875 90.945312 174.199219 C 93.226562 177.382812 97.152344 186.453125 95.945312 190.945312 C 94.410156 196.667969 99.660156 201.777344 101.171875 204.234375 C 104.242188 209.222656 106.1875 211.066406 113.582031 209.609375 C 120.972656 208.152344 123.355469 206.796875 126.835938 211.210938 C 130.316406 215.625 142.765625 233.324219 147.550781 236.890625 C 152.335938 240.457031 160.980469 245.691406 164.078125 246.183594 C 167.175781 246.675781 172.378906 244.695312 165.234375 239.875 C 158.09375 235.054688 154.324219 233.054688 155.171875 227.222656 C 156.019531 221.390625 155.867188 209.257812 154.144531 205.652344 C 152.421875 202.042969 153.109375 198.820312 154.589844 197.300781 C 156.078125 195.78125 159.007812 192.214844 159.332031 190.335938 C 159.660156 188.457031 155.328125 186.539062 152.773438 184.027344 C 150.214844 181.515625 149.074219 179.753906 152.984375 173.882812 C 156.894531 168.011719 149.96875 163.050781 141.4375 166.082031 C 132.90625 169.113281 125.929688 168.359375 124.386719 164.078125 C 122.84375 159.796875 117.230469 163.992188 112.609375 164.484375 C 107.988281 164.980469 106.300781 162.148438 101.574219 163.335938 C 95.1875 164.949219 92.199219 168.382812 90.875 170.640625 " fill-opacity="1" fill-rule="nonzero"/><path fill="#aac4ff" d="M 209.53125 93.117188 C 206.289062 91.707031 203.949219 87.660156 204.570312 79.644531 C 205.058594 73.351562 197.710938 72.136719 194.535156 71.902344 C 193.953125 71.863281 193.730469 71.132812 194.179688 70.761719 C 196.621094 68.75 203.316406 65.675781 214.902344 77.632812 C 229.878906 93.097656 227.300781 85.984375 227.808594 82.730469 C 228.3125 79.472656 222.371094 77.859375 223.234375 71.644531 C 223.777344 67.722656 222.503906 63.347656 221.125 59.996094 C 195.960938 36.378906 161.726562 25.539062 128.34375 29.636719 C 130.382812 32.699219 136.621094 43.929688 121.234375 47.605469 C 121.234375 47.605469 111.046875 48.941406 122.652344 62.789062 C 134.253906 76.640625 130.171875 56.449219 131 55.035156 C 131.828125 53.621094 134.570312 50.671875 139.6875 61.699219 C 139.6875 61.699219 141.757812 65.332031 135.007812 68.832031 C 128.257812 72.332031 129.035156 76.21875 130.105469 77.867188 C 131.175781 79.515625 134.597656 83.445312 133.121094 88.792969 C 131.648438 94.140625 137.886719 101.511719 140.855469 95.78125 C 143.828125 90.046875 141.621094 79.472656 145.386719 75.863281 C 149.152344 72.25 156.652344 75.289062 159.8125 71.191406 C 162.972656 67.09375 156.582031 61.28125 158.628906 59.953125 C 160.675781 58.628906 167.652344 59.960938 169.042969 63.449219 C 170.433594 66.941406 165.023438 72.496094 169.066406 75.144531 C 173.113281 77.792969 175.789062 74.300781 178.417969 76.109375 C 181.046875 77.917969 176.777344 84.785156 169.859375 84.882812 C 162.9375 84.976562 165.058594 90.042969 161.265625 89.574219 C 157.472656 89.105469 154.460938 84.914062 151.914062 88.609375 C 149.371094 92.3125 149.195312 96.523438 146.027344 101.507812 C 142.859375 106.488281 140.910156 111.554688 142.785156 114.441406 C 144.65625 117.324219 148.300781 119.355469 150.421875 124.417969 C 152.546875 129.484375 159.136719 142.777344 172.273438 130.746094 C 185.410156 118.710938 188.515625 127.53125 189.050781 128.355469 C 189.585938 129.179688 196.332031 140.03125 198.96875 140.957031 C 201.609375 141.878906 208.359375 145.113281 208.199219 155.171875 C 208.03125 165.234375 220.042969 179.703125 223.003906 174.851562 C 225.964844 170.003906 225.050781 159.175781 227.699219 151.605469 C 230.347656 144.027344 226.085938 121.324219 219.40625 117.75 C 212.722656 114.175781 217.148438 104.863281 215.769531 100.492188 C 214.386719 96.117188 212.773438 94.527344 209.53125 93.117188 " fill-opacity="1" fill-rule="nonzero"/><path fill="#aac4ff" d="M 28.601562 116.535156 C 30.914062 119.910156 33.582031 124.699219 33.648438 129.628906 C 33.851562 144.507812 37.496094 149.648438 43.707031 160.632812 C 49.917969 171.617188 76.644531 180.742188 81.558594 180.332031 C 86.476562 179.925781 84.019531 174.90625 81.609375 171.191406 C 79.199219 167.472656 74.746094 164.023438 69.808594 161.113281 C 64.867188 158.199219 63.09375 155.460938 62.59375 153.28125 C 62.09375 151.105469 64.289062 148.847656 67.148438 149.496094 C 70.007812 150.144531 75.148438 149.027344 76.414062 146.644531 C 77.972656 143.710938 73.589844 139.03125 73.304688 136.710938 C 73.023438 134.394531 76.980469 130.160156 76.5 125.191406 C 76.019531 120.222656 78.222656 116.570312 80.941406 112.304688 C 83.664062 108.039062 86.585938 105.03125 86.46875 103.4375 C 86.351562 101.847656 83.714844 99.664062 82.757812 95.839844 C 81.800781 92.011719 81.960938 86.628906 79.875 85.757812 C 77.785156 84.886719 72.917969 84.433594 69.449219 92.238281 C 65.976562 100.050781 64.476562 101.023438 60.855469 99.203125 C 57.234375 97.378906 55.929688 87.386719 63.441406 82.515625 C 70.953125 77.644531 70.929688 74.324219 70.003906 72.421875 C 69.074219 70.523438 65.445312 70.097656 62.617188 71.375 C 59.789062 72.65625 60.246094 74.300781 52.058594 85.171875 C 46.589844 92.429688 38.988281 95.277344 35.136719 96.785156 C 32.390625 103.230469 30.203125 109.835938 28.601562 116.535156 " fill-opacity="1" fill-rule="nonzero"/><path fill="#aac4ff" d="M 244.101562 97.738281 C 242.441406 98.355469 245.078125 101.714844 243.566406 103.617188 C 242.054688 105.523438 241.878906 107.019531 244.679688 110.273438 C 247.480469 113.53125 249.726562 118.757812 248.949219 121.796875 C 248.171875 124.835938 246.273438 127.910156 248.957031 132.398438 C 251.640625 136.882812 250.34375 143.710938 248.875 146.742188 C 247.402344 149.769531 245.171875 154.445312 247.589844 158.175781 C 249.152344 160.578125 251.082031 163.691406 253.167969 165.695312 C 257.859375 144.90625 256.796875 122.800781 249.441406 101.96875 C 247.507812 99.820312 245.054688 97.386719 244.101562 97.738281 " fill-opacity="1" fill-rule="nonzero"/><path fill="#6c9bcf" d="M 144.628906 264.816406 C 144.328125 264.816406 144.082031 264.578125 144.070312 264.277344 C 144.058594 263.96875 144.300781 263.707031 144.609375 263.695312 C 154.882812 263.324219 165.089844 261.707031 174.949219 258.886719 C 175.246094 258.800781 175.558594 258.976562 175.640625 259.273438 C 175.726562 259.570312 175.554688 259.882812 175.257812 259.964844 C 165.3125 262.808594 155.015625 264.441406 144.652344 264.816406 C 144.640625 264.816406 144.636719 264.816406 144.628906 264.816406 " fill-opacity="1" fill-rule="nonzero"/><path fill="#6c9bcf" d="M 194.671875 252.609375 C 194.464844 252.609375 194.261719 252.488281 194.167969 252.289062 C 194.035156 252.007812 194.152344 251.675781 194.433594 251.542969 C 199.554688 249.113281 204.582031 246.308594 209.375 243.199219 C 223.839844 233.820312 236.035156 221.886719 245.621094 207.734375 C 245.792969 207.476562 246.144531 207.410156 246.398438 207.585938 C 246.65625 207.757812 246.726562 208.105469 246.550781 208.363281 C 236.878906 222.640625 224.578125 234.679688 209.984375 244.140625 C 205.152344 247.273438 200.082031 250.105469 194.914062 252.554688 C 194.835938 252.589844 194.753906 252.609375 194.671875 252.609375 " fill-opacity="1" fill-rule="nonzero"/><path fill="#6c9bcf" d="M 142.164062 255.210938 C 140.445312 255.210938 138.726562 255.171875 137 255.097656 C 136.691406 255.082031 136.449219 254.820312 136.464844 254.511719 C 136.476562 254.203125 136.738281 253.964844 137.050781 253.976562 C 160.742188 255.027344 183.789062 248.757812 203.710938 235.84375 C 219.6875 225.480469 232.875 211.179688 241.839844 194.488281 C 241.988281 194.214844 242.324219 194.109375 242.597656 194.257812 C 242.871094 194.402344 242.976562 194.742188 242.828125 195.015625 C 233.773438 211.875 220.457031 226.316406 204.320312 236.785156 C 185.65625 248.886719 164.265625 255.210938 142.164062 255.210938 " fill-opacity="1" fill-rule="nonzero"/><path fill="#6c9bcf" d="M 50.933594 210.46875 C 50.765625 210.46875 50.597656 210.398438 50.488281 210.253906 C 48.496094 207.679688 46.582031 204.984375 44.804688 202.242188 C 27.972656 176.300781 22.183594 145.402344 28.507812 115.242188 C 34.828125 85.078125 52.507812 59.261719 78.285156 42.546875 C 101.085938 27.757812 128.503906 21.5625 155.488281 25.097656 C 182.15625 28.589844 206.921875 41.324219 225.21875 60.957031 C 225.429688 61.183594 225.417969 61.539062 225.1875 61.75 C 224.964844 61.960938 224.609375 61.949219 224.398438 61.722656 C 186.5 21.058594 125.304688 13.390625 78.894531 43.488281 C 53.371094 60.039062 35.863281 85.601562 29.605469 115.472656 C 23.34375 145.339844 29.074219 175.941406 45.742188 201.632812 C 47.507812 204.347656 49.402344 207.019531 51.375 209.570312 C 51.566406 209.8125 51.519531 210.164062 51.273438 210.351562 C 51.171875 210.433594 51.050781 210.46875 50.933594 210.46875 " fill-opacity="1" fill-rule="nonzero"/><path fill="#000000" d="M 112.855469 259.945312 C 112.546875 259.945312 112.296875 259.695312 112.296875 259.386719 L 112.296875 256.515625 C 112.296875 256.207031 112.546875 255.957031 112.855469 255.957031 C 113.164062 255.957031 113.417969 256.207031 113.417969 256.515625 L 113.417969 259.386719 C 113.417969 259.695312 113.164062 259.945312 112.855469 259.945312 " fill-opacity="1" fill-rule="nonzero"/><path fill="#000000" d="M 112.855469 266.628906 C 112.546875 266.628906 112.296875 266.375 112.296875 266.066406 L 112.296875 263.199219 C 112.296875 262.886719 112.546875 262.640625 112.855469 262.640625 C 113.164062 262.640625 113.417969 262.886719 113.417969 263.199219 L 113.417969 266.066406 C 113.417969 266.375 113.164062 266.628906 112.855469 266.628906 " fill-opacity="1" fill-rule="nonzero"/><path fill="#000000" d="M 110.949219 261.851562 L 108.082031 261.851562 C 107.769531 261.851562 107.519531 261.601562 107.519531 261.292969 C 107.519531 260.984375 107.769531 260.730469 108.082031 260.730469 L 110.949219 260.730469 C 111.257812 260.730469 111.507812 260.984375 111.507812 261.292969 C 111.507812 261.601562 111.257812 261.851562 110.949219 261.851562 " fill-opacity="1" fill-rule="nonzero"/><path fill="#000000" d="M 117.632812 261.851562 L 114.765625 261.851562 C 114.453125 261.851562 114.203125 261.601562 114.203125 261.292969 C 114.203125 260.984375 114.453125 260.730469 114.765625 260.730469 L 117.632812 260.730469 C 117.941406 260.730469 118.191406 260.984375 118.191406 261.292969 C 118.191406 261.601562 117.941406 261.851562 117.632812 261.851562 " fill-opacity="1" fill-rule="nonzero"/><path fill="#000000" d="M 266.136719 79.761719 C 265.828125 79.761719 265.574219 79.511719 265.574219 79.203125 L 265.574219 76.304688 C 265.574219 75.992188 265.828125 75.742188 266.136719 75.742188 C 266.449219 75.742188 266.695312 75.992188 266.695312 76.304688 L 266.695312 79.203125 C 266.695312 79.511719 266.449219 79.761719 266.136719 79.761719 " fill-opacity="1" fill-rule="nonzero"/><path fill="#000000" d="M 266.136719 86.519531 C 265.828125 86.519531 265.574219 86.269531 265.574219 85.957031 L 265.574219 83.058594 C 265.574219 82.75 265.828125 82.496094 266.136719 82.496094 C 266.449219 82.496094 266.699219 82.75 266.699219 83.058594 L 266.699219 85.957031 C 266.699219 86.269531 266.449219 86.519531 266.136719 86.519531 " fill-opacity="1" fill-rule="nonzero"/><path fill="#000000" d="M 264.210938 81.691406 L 261.308594 81.691406 C 261 81.691406 260.746094 81.441406 260.746094 81.132812 C 260.746094 80.824219 261 80.570312 261.308594 80.570312 L 264.210938 80.570312 C 264.519531 80.570312 264.769531 80.824219 264.769531 81.132812 C 264.769531 81.441406 264.519531 81.691406 264.210938 81.691406 " fill-opacity="1" fill-rule="nonzero"/><path fill="#000000" d="M 270.964844 81.691406 L 268.066406 81.691406 C 267.753906 81.691406 267.503906 81.441406 267.503906 81.132812 C 267.503906 80.824219 267.753906 80.570312 268.066406 80.570312 L 270.964844 80.570312 C 271.273438 80.570312 271.523438 80.824219 271.523438 81.132812 C 271.523438 81.441406 271.273438 81.691406 270.964844 81.691406 " fill-opacity="1" fill-rule="nonzero"/><path fill="#000000" d="M 89.367188 296.671875 C 89.25 296.671875 89.132812 296.636719 89.03125 296.5625 C 77.234375 287.839844 67.300781 277.371094 59.507812 265.457031 C 59.335938 265.195312 59.410156 264.851562 59.667969 264.679688 C 59.929688 264.511719 60.277344 264.582031 60.445312 264.84375 C 68.167969 276.644531 78.011719 287.015625 89.699219 295.660156 C 89.949219 295.84375 90 296.195312 89.816406 296.445312 C 89.707031 296.59375 89.539062 296.671875 89.367188 296.671875 " fill-opacity="1" fill-rule="nonzero"/><path fill="#000000" d="M 99.765625 303.613281 C 99.667969 303.613281 99.570312 303.585938 99.476562 303.535156 C 97.792969 302.519531 96.113281 301.460938 94.484375 300.382812 C 94.226562 300.210938 94.15625 299.863281 94.328125 299.605469 C 94.5 299.347656 94.847656 299.277344 95.105469 299.449219 C 96.71875 300.519531 98.386719 301.570312 100.054688 302.574219 C 100.320312 302.730469 100.40625 303.074219 100.25 303.34375 C 100.144531 303.515625 99.957031 303.613281 99.765625 303.613281 " fill-opacity="1" fill-rule="nonzero"/><path fill="#000000" d="M 112.183594 301.292969 C 112.105469 301.292969 112.023438 301.277344 111.945312 301.238281 C 95.554688 293.398438 81.796875 282.515625 71.046875 268.890625 C 70.855469 268.648438 70.898438 268.292969 71.140625 268.101562 C 71.382812 267.910156 71.738281 267.953125 71.929688 268.195312 C 82.570312 281.683594 96.195312 292.460938 112.425781 300.226562 C 112.707031 300.359375 112.824219 300.695312 112.691406 300.972656 C 112.59375 301.175781 112.394531 301.292969 112.183594 301.292969 " fill-opacity="1" fill-rule="nonzero"/><path fill="#000000" d="M 277.90625 62.460938 C 277.769531 62.460938 277.636719 62.414062 277.53125 62.316406 C 267.054688 52.867188 254.890625 45.351562 241.386719 39.96875 C 241.097656 39.855469 240.957031 39.527344 241.070312 39.242188 C 241.1875 38.953125 241.511719 38.8125 241.800781 38.929688 C 255.433594 44.359375 267.707031 51.949219 278.28125 61.484375 C 278.511719 61.691406 278.527344 62.046875 278.324219 62.277344 C 278.210938 62.398438 278.058594 62.460938 277.90625 62.460938 " fill-opacity="1" fill-rule="nonzero"/><path fill="#000000" d="M 235.371094 37.714844 C 235.3125 37.714844 235.25 37.707031 235.191406 37.683594 C 233.351562 37.0625 231.472656 36.46875 229.609375 35.925781 C 229.3125 35.839844 229.140625 35.527344 229.226562 35.230469 C 229.3125 34.933594 229.625 34.761719 229.921875 34.847656 C 231.804688 35.394531 233.699219 35.992188 235.550781 36.625 C 235.847656 36.722656 236 37.042969 235.902344 37.335938 C 235.824219 37.570312 235.605469 37.714844 235.371094 37.714844 " fill-opacity="1" fill-rule="nonzero"/><path fill="#000000" d="M 265.910156 62.113281 C 265.792969 62.113281 265.671875 62.078125 265.574219 62 C 251.84375 51.667969 235.917969 44.71875 218.242188 41.34375 C 217.941406 41.285156 217.742188 40.992188 217.800781 40.691406 C 217.855469 40.386719 218.148438 40.183594 218.453125 40.242188 C 236.300781 43.652344 252.378906 50.667969 266.25 61.105469 C 266.492188 61.289062 266.542969 61.640625 266.359375 61.886719 C 266.25 62.035156 266.078125 62.113281 265.910156 62.113281 " fill-opacity="1" fill-rule="nonzero"/><path fill="#000000" d="M 151.8125 144.128906 C 151.035156 144.128906 150.292969 144.390625 149.691406 144.878906 C 149 145.4375 148.570312 146.230469 148.484375 147.117188 C 148.300781 148.972656 149.683594 150.652344 151.566406 150.867188 C 152.484375 150.96875 153.378906 150.714844 154.085938 150.140625 C 154.777344 149.582031 155.203125 148.789062 155.292969 147.902344 C 155.476562 146.046875 154.089844 144.367188 152.207031 144.152344 C 152.074219 144.136719 151.945312 144.128906 151.8125 144.128906 Z M 151.96875 152.011719 C 151.792969 152.011719 151.617188 152 151.441406 151.980469 C 148.953125 151.699219 147.125 149.46875 147.367188 147.007812 C 147.480469 145.820312 148.054688 144.753906 148.984375 144.007812 C 149.925781 143.246094 151.117188 142.898438 152.335938 143.039062 C 154.824219 143.320312 156.652344 145.550781 156.40625 148.011719 C 156.292969 149.199219 155.71875 150.265625 154.792969 151.015625 C 153.984375 151.667969 153 152.011719 151.96875 152.011719 " fill-opacity="1" fill-rule="nonzero"/><path fill="#000000" d="M 161.78125 152.945312 Z M 164.289062 151.253906 C 163.832031 151.253906 163.398438 151.40625 163.042969 151.691406 C 162.640625 152.019531 162.390625 152.484375 162.339844 153 C 162.230469 154.089844 163.042969 155.078125 164.152344 155.203125 C 164.691406 155.261719 165.214844 155.113281 165.628906 154.777344 C 166.035156 154.453125 166.285156 153.988281 166.335938 153.46875 C 166.441406 152.378906 165.628906 151.394531 164.523438 151.265625 C 164.445312 151.257812 164.367188 151.253906 164.289062 151.253906 Z M 164.386719 156.339844 C 164.265625 156.339844 164.148438 156.332031 164.027344 156.316406 C 162.3125 156.125 161.054688 154.585938 161.222656 152.890625 C 161.300781 152.074219 161.699219 151.335938 162.339844 150.820312 C 162.988281 150.292969 163.808594 150.058594 164.648438 150.152344 C 166.359375 150.347656 167.617188 151.882812 167.453125 153.578125 C 167.371094 154.398438 166.976562 155.132812 166.335938 155.648438 C 165.78125 156.101562 165.097656 156.339844 164.386719 156.339844 " fill-opacity="1" fill-rule="nonzero"/><path fill="#000000" d="M 140.546875 122.410156 C 142.375 133.730469 134.675781 144.390625 123.351562 146.214844 C 112.027344 148.039062 101.367188 140.339844 99.539062 129.023438 C 97.714844 117.703125 105.414062 107.042969 116.738281 105.21875 C 128.0625 103.394531 138.722656 111.089844 140.546875 122.410156 " fill-opacity="1" fill-rule="nonzero"/><path fill="#aac4ff" d="M 140.71875 121.757812 C 142.492188 132.742188 135.019531 143.082031 124.03125 144.855469 C 113.042969 146.625 102.699219 139.15625 100.929688 128.171875 C 99.15625 117.1875 106.628906 106.847656 117.617188 105.078125 C 128.601562 103.304688 138.949219 110.773438 140.71875 121.757812 " fill-opacity="1" fill-rule="nonzero"/><path fill="#000000" d="M 120.835938 105.378906 C 119.800781 105.378906 118.757812 105.464844 117.703125 105.632812 C 107.039062 107.351562 99.761719 117.421875 101.480469 128.085938 C 102.316406 133.25 105.109375 137.78125 109.351562 140.84375 C 113.59375 143.90625 118.777344 145.136719 123.941406 144.300781 C 129.109375 143.46875 133.640625 140.675781 136.703125 136.433594 C 139.769531 132.195312 140.996094 127.015625 140.164062 121.847656 C 138.613281 112.238281 130.273438 105.378906 120.835938 105.378906 Z M 120.777344 145.679688 C 116.460938 145.679688 112.265625 144.328125 108.695312 141.75 C 104.210938 138.515625 101.253906 133.722656 100.375 128.261719 C 99.492188 122.804688 100.792969 117.328125 104.03125 112.84375 C 107.269531 108.359375 112.0625 105.40625 117.523438 104.523438 C 128.800781 102.707031 139.453125 110.398438 141.273438 121.671875 C 143.089844 132.941406 135.394531 143.59375 124.121094 145.410156 C 123.003906 145.589844 121.886719 145.679688 120.777344 145.679688 " fill-opacity="1" fill-rule="nonzero"/><path fill="#ffffff" d="M 137.519531 122.273438 C 139.007812 131.492188 132.738281 140.167969 123.515625 141.65625 C 114.296875 143.140625 105.613281 136.875 104.128906 127.660156 C 102.640625 118.441406 108.910156 109.761719 118.132812 108.273438 C 127.351562 106.789062 136.03125 113.054688 137.519531 122.273438 " fill-opacity="1" fill-rule="nonzero"/><path fill="#000000" d="M 136.316406 132.304688 C 136.242188 132.304688 136.167969 132.289062 136.09375 132.257812 C 135.808594 132.132812 135.679688 131.800781 135.804688 131.519531 C 136.433594 130.085938 136.851562 128.578125 137.046875 127.03125 C 137.085938 126.726562 137.367188 126.511719 137.675781 126.546875 C 137.980469 126.585938 138.199219 126.867188 138.160156 127.171875 C 137.949219 128.828125 137.503906 130.4375 136.832031 131.96875 C 136.738281 132.179688 136.535156 132.304688 136.316406 132.304688 " fill-opacity="1" fill-rule="nonzero"/><path fill="#000000" d="M 105.757812 117.839844 C 105.671875 117.839844 105.585938 117.820312 105.503906 117.777344 C 105.230469 117.636719 105.121094 117.300781 105.261719 117.023438 C 107.789062 112.082031 112.566406 108.605469 118.042969 107.722656 C 124.605469 106.664062 131.316406 109.496094 135.136719 114.941406 C 135.316406 115.195312 135.253906 115.542969 135 115.722656 C 134.746094 115.898438 134.394531 115.835938 134.21875 115.585938 C 130.585938 110.410156 124.460938 107.824219 118.21875 108.828125 C 113.097656 109.652344 108.625 112.910156 106.257812 117.535156 C 106.160156 117.730469 105.964844 117.839844 105.757812 117.839844 " fill-opacity="1" fill-rule="nonzero"/><path fill="#000000" d="M 120.8125 142.433594 C 112.394531 142.433594 104.957031 136.320312 103.574219 127.746094 C 103.097656 124.792969 103.386719 121.757812 104.410156 118.964844 C 104.519531 118.675781 104.839844 118.523438 105.132812 118.632812 C 105.421875 118.738281 105.570312 119.058594 105.464844 119.351562 C 104.507812 121.964844 104.234375 124.804688 104.679688 127.570312 C 105.375 131.878906 107.710938 135.660156 111.25 138.21875 C 114.789062 140.773438 119.113281 141.796875 123.425781 141.105469 C 123.730469 141.054688 124.019531 141.261719 124.070312 141.566406 C 124.117188 141.875 123.910156 142.160156 123.605469 142.210938 C 122.667969 142.363281 121.734375 142.433594 120.8125 142.433594 " fill-opacity="1" fill-rule="nonzero"/><path fill="#6c9bcf" d="M 121.191406 137 L 120.75 134.253906 C 118.800781 134.480469 116.839844 134.261719 115.636719 133.804688 L 115.960938 130.285156 C 117.28125 130.753906 119.082031 131.085938 120.960938 130.785156 C 122.605469 130.519531 123.632812 129.699219 123.445312 128.546875 C 123.269531 127.445312 122.230469 126.902344 119.976562 126.527344 C 116.71875 125.984375 114.375 124.882812 113.925781 122.078125 C 113.515625 119.535156 114.984375 117.257812 117.976562 116.152344 L 117.535156 113.40625 L 120.367188 112.949219 L 120.777344 115.492188 C 122.726562 115.265625 124.09375 115.460938 125.121094 115.769531 L 124.808594 119.167969 C 124.003906 118.972656 122.570312 118.523438 120.488281 118.859375 C 118.613281 119.160156 118.136719 120.066406 118.265625 120.875 C 118.417969 121.828125 119.527344 122.273438 122.132812 122.800781 C 125.765625 123.460938 127.410156 124.824219 127.828125 127.421875 C 128.246094 129.996094 126.777344 132.480469 123.550781 133.59375 L 124.023438 136.542969 L 121.191406 137 " fill-opacity="1" fill-rule="nonzero"/><path fill="#000000" d="M 116.367188 75.347656 C 118.910156 88.136719 110.597656 100.570312 97.800781 103.113281 C 85.007812 105.65625 72.570312 97.347656 70.027344 84.554688 C 67.484375 71.761719 75.796875 59.332031 88.59375 56.789062 C 101.386719 54.246094 113.824219 62.554688 116.367188 75.347656 " fill-opacity="1" fill-rule="nonzero"/><path fill="#aac4ff" d="M 116.53125 74.601562 C 119 87.011719 110.933594 99.074219 98.519531 101.542969 C 86.101562 104.007812 74.039062 95.949219 71.570312 83.535156 C 69.101562 71.125 77.164062 59.0625 89.582031 56.59375 C 101.996094 54.128906 114.0625 62.1875 116.53125 74.601562 " fill-opacity="1" fill-rule="nonzero"/><path fill="#000000" d="M 94.097656 56.707031 C 92.632812 56.707031 91.160156 56.851562 89.691406 57.144531 C 83.832031 58.308594 78.777344 61.683594 75.460938 66.648438 C 72.140625 71.613281 70.953125 77.570312 72.121094 83.425781 C 73.285156 89.28125 76.660156 94.335938 81.625 97.652344 C 86.589844 100.96875 92.550781 102.15625 98.410156 100.992188 C 104.265625 99.828125 109.320312 96.453125 112.640625 91.488281 C 115.957031 86.523438 117.144531 80.566406 115.980469 74.710938 C 114.816406 68.855469 111.441406 63.800781 106.476562 60.484375 C 102.753906 58 98.472656 56.707031 94.097656 56.707031 Z M 94 102.546875 C 89.40625 102.546875 84.910156 101.195312 81.003906 98.582031 C 75.789062 95.097656 72.242188 89.792969 71.019531 83.644531 C 69.796875 77.496094 71.042969 71.238281 74.527344 66.023438 C 78.011719 60.8125 83.320312 57.269531 89.472656 56.042969 C 95.625 54.824219 101.882812 56.066406 107.097656 59.554688 C 112.3125 63.035156 115.859375 68.339844 117.082031 74.492188 C 118.304688 80.640625 117.058594 86.898438 113.570312 92.113281 C 110.085938 97.324219 104.78125 100.871094 98.628906 102.089844 C 97.085938 102.398438 95.539062 102.546875 94 102.546875 " fill-opacity="1" fill-rule="nonzero"/><path fill="#ffffff" d="M 112.917969 75.316406 C 114.988281 85.734375 108.21875 95.855469 97.800781 97.929688 C 87.382812 99.996094 77.253906 93.230469 75.183594 82.816406 C 73.113281 72.402344 79.882812 62.277344 90.300781 60.207031 C 100.71875 58.136719 110.84375 64.902344 112.917969 75.316406 " fill-opacity="1" fill-rule="nonzero"/><path fill="#000000" d="M 111.941406 86.691406 C 111.875 86.691406 111.804688 86.679688 111.738281 86.652344 C 111.449219 86.539062 111.308594 86.214844 111.421875 85.925781 C 112.078125 84.265625 112.492188 82.523438 112.652344 80.75 C 112.679688 80.445312 112.957031 80.21875 113.261719 80.242188 C 113.570312 80.273438 113.796875 80.546875 113.769531 80.851562 C 113.601562 82.730469 113.160156 84.578125 112.464844 86.335938 C 112.375 86.558594 112.164062 86.691406 111.941406 86.691406 " fill-opacity="1" fill-rule="nonzero"/><path fill="#000000" d="M 76.609375 71.511719 C 76.53125 71.511719 76.449219 71.496094 76.375 71.460938 C 76.09375 71.328125 75.972656 70.996094 76.101562 70.714844 C 78.761719 65.015625 84.027344 60.882812 90.191406 59.65625 C 97.578125 58.191406 105.292969 61.121094 109.84375 67.128906 C 110.03125 67.375 109.980469 67.726562 109.734375 67.914062 C 109.488281 68.101562 109.136719 68.050781 108.949219 67.804688 C 104.589844 62.050781 97.488281 59.351562 90.410156 60.757812 C 84.597656 61.914062 79.628906 65.8125 77.121094 71.1875 C 77.023438 71.394531 76.820312 71.511719 76.609375 71.511719 " fill-opacity="1" fill-rule="nonzero"/><path fill="#000000" d="M 94.007812 98.863281 C 90.132812 98.863281 86.34375 97.722656 83.050781 95.519531 C 78.652344 92.582031 75.664062 88.113281 74.632812 82.925781 C 73.972656 79.601562 74.175781 76.152344 75.222656 72.945312 C 75.316406 72.652344 75.636719 72.492188 75.929688 72.589844 C 76.222656 72.683594 76.382812 73 76.289062 73.296875 C 75.300781 76.316406 75.113281 79.570312 75.734375 82.707031 C 76.707031 87.597656 79.527344 91.816406 83.671875 94.585938 C 87.820312 97.359375 92.800781 98.347656 97.691406 97.378906 C 97.996094 97.320312 98.289062 97.515625 98.351562 97.820312 C 98.410156 98.121094 98.214844 98.417969 97.910156 98.476562 C 96.609375 98.734375 95.304688 98.863281 94.007812 98.863281 " fill-opacity="1" fill-rule="nonzero"/><path fill="#6c9bcf" d="M 94.96875 92.726562 L 94.351562 89.625 C 92.144531 89.960938 89.90625 89.796875 88.523438 89.324219 L 88.742188 85.3125 C 90.261719 85.789062 92.324219 86.09375 94.449219 85.671875 C 96.308594 85.300781 97.441406 84.328125 97.179688 83.023438 C 96.933594 81.785156 95.734375 81.207031 93.15625 80.871094 C 89.425781 80.390625 86.71875 79.234375 86.089844 76.066406 C 85.519531 73.195312 87.09375 70.542969 90.453125 69.164062 L 89.835938 66.0625 L 93.035156 65.425781 L 93.605469 68.296875 C 95.8125 67.960938 97.375 68.128906 98.554688 68.433594 L 98.339844 72.308594 C 97.421875 72.121094 95.769531 71.667969 93.417969 72.136719 C 91.296875 72.554688 90.792969 73.605469 90.976562 74.519531 C 91.191406 75.597656 92.46875 76.054688 95.449219 76.546875 C 99.609375 77.148438 101.53125 78.632812 102.117188 81.570312 C 102.695312 84.472656 101.128906 87.363281 97.507812 88.761719 L 98.167969 92.089844 L 94.96875 92.726562 " fill-opacity="1" fill-rule="nonzero"/><path fill="#aac4ff" d="M 327.527344 197.878906 L 330.019531 313.78125 L 298.265625 330.734375 C 298.144531 330.800781 297.929688 330.753906 297.929688 330.660156 L 296.226562 214.230469 C 296.226562 214.230469 327.078125 197.890625 327.527344 197.878906 " fill-opacity="1" fill-rule="nonzero"/><path fill="#000000" d="M 296.792969 214.566406 L 298.480469 329.984375 L 329.449219 313.453125 L 326.988281 198.742188 C 323.4375 200.5 307.695312 208.792969 296.792969 214.566406 Z M 298.128906 331.328125 C 297.976562 331.328125 297.824219 331.289062 297.695312 331.214844 C 297.496094 331.09375 297.375 330.894531 297.367188 330.671875 L 295.664062 214.238281 C 295.664062 214.03125 295.777344 213.832031 295.964844 213.734375 C 326.933594 197.332031 327.339844 197.324219 327.515625 197.316406 C 327.667969 197.308594 327.808594 197.371094 327.917969 197.472656 C 328.023438 197.574219 328.085938 197.71875 328.089844 197.867188 L 330.578125 313.769531 C 330.582031 313.980469 330.46875 314.179688 330.28125 314.277344 L 298.53125 331.230469 C 298.40625 331.292969 298.269531 331.328125 298.128906 331.328125 " fill-opacity="1" fill-rule="nonzero"/><path fill="#ffffff" d="M 300.425781 328.679688 L 299.367188 211.132812 L 229.355469 180.300781 L 160.746094 212.230469 L 162.136719 330.566406 C 162.15625 332.21875 163.535156 333.53125 165.238281 333.519531 L 296.671875 332.40625 C 298.78125 332.386719 300.457031 330.726562 300.425781 328.679688 " fill-opacity="1" fill-rule="nonzero"/><path fill="#d2daff" d="M 183.160156 277.425781 L 172.277344 277.425781 C 171.25 277.425781 170.429688 276.589844 170.441406 275.558594 L 170.640625 259.816406 C 170.648438 258.792969 171.488281 257.960938 172.507812 257.960938 L 183.351562 257.960938 C 184.371094 257.960938 185.191406 258.792969 185.179688 259.816406 L 185.035156 275.558594 C 185.023438 276.589844 184.1875 277.425781 183.160156 277.425781 " fill-opacity="1" fill-rule="nonzero"/><path fill="#d2daff" d="M 200.097656 277.425781 L 189.585938 277.425781 C 188.457031 277.425781 187.550781 276.507812 187.5625 275.371094 L 187.695312 260.003906 C 187.707031 258.875 188.625 257.960938 189.746094 257.960938 L 200.21875 257.960938 C 201.339844 257.960938 202.246094 258.875 202.238281 260.003906 L 202.152344 275.371094 C 202.144531 276.507812 201.226562 277.425781 200.097656 277.425781 " fill-opacity="1" fill-rule="nonzero"/><path fill="#d2daff" d="M 183.484375 299.246094 L 171.480469 299.246094 C 170.746094 299.246094 170.15625 298.644531 170.167969 297.898438 L 170.375 280.9375 C 170.386719 280.199219 170.988281 279.601562 171.71875 279.601562 L 183.671875 279.601562 C 184.40625 279.601562 184.992188 280.199219 184.984375 280.9375 L 184.828125 297.898438 C 184.820312 298.644531 184.21875 299.246094 183.484375 299.246094 " fill-opacity="1" fill-rule="nonzero"/><path fill="#d2daff" d="M 199.914062 299.246094 L 189.457031 299.246094 C 188.292969 299.246094 187.359375 298.292969 187.371094 297.117188 L 187.507812 281.710938 C 187.515625 280.542969 188.460938 279.601562 189.621094 279.601562 L 200.035156 279.601562 C 201.191406 279.601562 202.125 280.542969 202.117188 281.710938 L 202.03125 297.117188 C 202.023438 298.292969 201.074219 299.246094 199.914062 299.246094 " fill-opacity="1" fill-rule="nonzero"/><path fill="#d2daff" d="M 272.40625 277.425781 L 261.519531 277.425781 C 260.496094 277.425781 259.660156 276.589844 259.652344 275.558594 L 259.546875 259.816406 C 259.542969 258.789062 260.363281 257.960938 261.382812 257.960938 L 272.226562 257.960938 C 273.246094 257.960938 274.082031 258.789062 274.089844 259.816406 L 274.246094 275.558594 C 274.253906 276.589844 273.433594 277.425781 272.40625 277.425781 " fill-opacity="1" fill-rule="nonzero"/><path fill="#d2daff" d="M 289.34375 277.425781 L 278.832031 277.425781 C 277.703125 277.425781 276.78125 276.503906 276.769531 275.371094 L 276.613281 260 C 276.601562 258.875 277.5 257.960938 278.625 257.960938 L 289.09375 257.960938 C 290.21875 257.960938 291.140625 258.875 291.15625 260 L 291.359375 275.371094 C 291.375 276.503906 290.472656 277.425781 289.34375 277.425781 " fill-opacity="1" fill-rule="nonzero"/><path fill="#d2daff" d="M 273.144531 299.246094 L 261.140625 299.246094 C 260.402344 299.246094 259.804688 298.640625 259.800781 297.898438 L 259.6875 280.9375 C 259.683594 280.199219 260.273438 279.597656 261.003906 279.597656 L 272.957031 279.597656 C 273.6875 279.597656 274.289062 280.199219 274.296875 280.9375 L 274.460938 297.898438 C 274.46875 298.640625 273.878906 299.246094 273.144531 299.246094 " fill-opacity="1" fill-rule="nonzero"/><path fill="#d2daff" d="M 289.574219 299.246094 L 279.117188 299.246094 C 277.957031 299.246094 277.003906 298.292969 276.992188 297.117188 L 276.832031 281.710938 C 276.820312 280.542969 277.75 279.597656 278.90625 279.597656 L 289.320312 279.597656 C 290.476562 279.597656 291.429688 280.542969 291.441406 281.710938 L 291.648438 297.117188 C 291.667969 298.292969 290.738281 299.246094 289.574219 299.246094 " fill-opacity="1" fill-rule="nonzero"/><path fill="#d2daff" d="M 228.867188 214.871094 L 219.183594 214.871094 C 218.175781 214.871094 217.359375 214.054688 217.359375 213.050781 L 217.386719 201.171875 C 217.390625 200.175781 218.210938 199.367188 219.214844 199.367188 L 228.867188 199.367188 C 229.875 199.367188 230.691406 200.175781 230.691406 201.171875 L 230.695312 213.050781 C 230.695312 214.054688 229.878906 214.871094 228.867188 214.871094 " fill-opacity="1" fill-rule="nonzero"/><path fill="#d2daff" d="M 244.335938 214.871094 L 235.019531 214.871094 C 233.910156 214.871094 233.007812 213.972656 233.003906 212.867188 L 232.992188 201.355469 C 232.992188 200.253906 233.890625 199.367188 235 199.367188 L 244.28125 199.367188 C 245.390625 199.367188 246.292969 200.253906 246.296875 201.355469 L 246.339844 212.867188 C 246.34375 213.972656 245.445312 214.871094 244.335938 214.871094 " fill-opacity="1" fill-rule="nonzero"/><path fill="#d2daff" d="M 229.394531 232.21875 L 218.625 232.21875 C 217.902344 232.21875 217.316406 231.636719 217.316406 230.914062 L 217.347656 217.902344 C 217.347656 217.183594 217.9375 216.597656 218.660156 216.597656 L 229.390625 216.597656 C 230.113281 216.597656 230.699219 217.183594 230.699219 217.902344 L 230.707031 230.914062 C 230.707031 231.636719 230.117188 232.21875 229.394531 232.21875 " fill-opacity="1" fill-rule="nonzero"/><path fill="#d2daff" d="M 244.339844 232.21875 L 235.097656 232.21875 C 233.953125 232.21875 233.023438 231.292969 233.019531 230.152344 L 233.011719 218.65625 C 233.007812 217.519531 233.933594 216.597656 235.074219 216.597656 L 244.289062 216.597656 C 245.429688 216.597656 246.359375 217.519531 246.363281 218.65625 L 246.40625 230.152344 C 246.410156 231.292969 245.488281 232.21875 244.339844 232.21875 " fill-opacity="1" fill-rule="nonzero"/><path fill="#000000" d="M 165.210938 334.078125 C 163.226562 334.078125 161.597656 332.511719 161.578125 330.574219 L 160.1875 212.238281 C 160.183594 212.015625 160.308594 211.816406 160.511719 211.722656 L 229.121094 179.792969 C 229.261719 179.726562 229.425781 179.722656 229.570312 179.78125 L 299.546875 208.417969 C 299.757812 208.503906 299.894531 208.707031 299.894531 208.9375 L 299.839844 252.910156 C 299.835938 253.21875 299.585938 253.472656 299.277344 253.472656 C 298.96875 253.472656 298.71875 253.21875 298.71875 252.910156 L 298.773438 209.3125 L 229.371094 180.914062 L 161.3125 212.585938 L 162.699219 330.5625 C 162.714844 331.886719 163.839844 332.957031 165.210938 332.957031 C 165.222656 332.957031 165.226562 332.957031 165.238281 332.957031 L 296.667969 331.84375 C 297.558594 331.835938 298.382812 331.492188 298.992188 330.871094 C 299.566406 330.28125 299.878906 329.503906 299.867188 328.6875 L 299.054688 275.148438 C 299.046875 274.835938 299.296875 274.582031 299.605469 274.578125 C 299.914062 274.574219 300.171875 274.820312 300.175781 275.128906 L 300.988281 328.671875 C 301.003906 329.789062 300.578125 330.847656 299.792969 331.652344 C 298.976562 332.488281 297.871094 332.957031 296.675781 332.96875 L 165.246094 334.078125 C 165.234375 334.078125 165.226562 334.078125 165.210938 334.078125 " fill-opacity="1" fill-rule="nonzero"/><path fill="#d2daff" d="M 247.640625 334 L 215.347656 334 C 213.398438 334 211.820312 332.390625 211.828125 330.402344 L 212.089844 256.144531 C 212.097656 254.21875 213.660156 252.664062 215.578125 252.664062 L 247.316406 252.664062 C 249.234375 252.664062 250.796875 254.21875 250.804688 256.144531 L 251.15625 330.402344 C 251.167969 332.390625 249.59375 334 247.640625 334 " fill-opacity="1" fill-rule="nonzero"/><path fill="#aac4ff" d="M 246.804688 331.082031 L 216.339844 331.082031 C 215.039062 331.082031 213.992188 330.007812 213.996094 328.683594 L 214.214844 257.214844 C 214.21875 255.929688 215.261719 254.890625 216.539062 254.890625 L 246.511719 254.890625 C 247.789062 254.890625 248.832031 255.929688 248.839844 257.214844 L 249.148438 328.683594 C 249.152344 330.007812 248.105469 331.082031 246.804688 331.082031 " fill-opacity="1" fill-rule="nonzero"/><path fill="#000000" d="M 248.230469 331.640625 L 214.914062 331.640625 C 214.511719 331.640625 214.140625 331.488281 213.859375 331.207031 C 213.582031 330.925781 213.425781 330.554688 213.429688 330.15625 L 213.65625 255.785156 C 213.660156 254.980469 214.320312 254.332031 215.128906 254.332031 L 247.914062 254.332031 C 248.726562 254.332031 249.386719 254.980469 249.390625 255.78125 L 249.550781 293.128906 C 249.550781 293.441406 249.304688 293.691406 248.992188 293.691406 C 248.683594 293.691406 248.433594 293.441406 248.429688 293.132812 L 248.269531 255.789062 C 248.269531 255.605469 248.109375 255.453125 247.914062 255.453125 L 215.128906 255.453125 C 214.9375 255.453125 214.78125 255.601562 214.78125 255.789062 L 214.550781 330.160156 C 214.546875 330.253906 214.585938 330.347656 214.652344 330.414062 C 214.722656 330.480469 214.8125 330.519531 214.914062 330.519531 L 248.230469 330.519531 C 248.328125 330.519531 248.417969 330.480469 248.488281 330.414062 C 248.554688 330.347656 248.589844 330.257812 248.589844 330.164062 L 248.480469 304.730469 C 248.476562 304.417969 248.730469 304.167969 249.039062 304.167969 C 249.351562 304.167969 249.601562 304.414062 249.601562 304.722656 L 249.710938 330.15625 C 249.714844 330.554688 249.5625 330.925781 249.28125 331.207031 C 249.003906 331.488281 248.628906 331.640625 248.230469 331.640625 " fill-opacity="1" fill-rule="nonzero"/><path fill="#aac4ff" d="M 255.390625 333.070312 L 207.769531 333.070312 C 206.847656 333.070312 206.105469 332.308594 206.109375 331.371094 L 206.128906 327.566406 C 206.132812 326.628906 206.878906 325.867188 207.800781 325.867188 L 255.351562 325.867188 C 256.269531 325.867188 257.019531 326.628906 257.023438 327.566406 L 257.046875 331.371094 C 257.050781 332.308594 256.3125 333.070312 255.390625 333.070312 " fill-opacity="1" fill-rule="nonzero"/><path fill="#000000" d="M 207.800781 326.429688 C 207.191406 326.429688 206.691406 326.9375 206.691406 327.566406 L 206.671875 331.375 C 206.667969 331.683594 206.785156 331.972656 207.003906 332.1875 C 207.207031 332.394531 207.480469 332.511719 207.769531 332.511719 L 255.390625 332.511719 C 255.679688 332.511719 255.949219 332.394531 256.15625 332.1875 C 256.371094 331.972656 256.488281 331.683594 256.484375 331.375 L 256.460938 327.566406 C 256.460938 326.9375 255.957031 326.429688 255.347656 326.429688 Z M 255.390625 333.628906 L 207.769531 333.628906 C 207.179688 333.628906 206.625 333.398438 206.207031 332.980469 C 205.78125 332.550781 205.546875 331.980469 205.550781 331.367188 L 205.566406 327.5625 C 205.574219 326.320312 206.574219 325.308594 207.800781 325.308594 L 255.347656 325.308594 C 256.574219 325.308594 257.578125 326.320312 257.585938 327.5625 L 257.609375 331.367188 C 257.609375 331.976562 257.378906 332.550781 256.953125 332.980469 C 256.535156 333.398438 255.980469 333.628906 255.390625 333.628906 " fill-opacity="1" fill-rule="nonzero"/><path fill="#d2daff" d="M 169.972656 244.039062 C 169.667969 244.039062 169.417969 243.792969 169.414062 243.484375 C 169.410156 243.175781 169.660156 242.917969 169.96875 242.917969 L 289.296875 241.9375 C 289.613281 241.917969 289.859375 242.183594 289.863281 242.492188 C 289.867188 242.800781 289.617188 243.054688 289.304688 243.058594 L 169.980469 244.039062 C 169.976562 244.039062 169.976562 244.039062 169.972656 244.039062 " fill-opacity="1" fill-rule="nonzero"/><g clip-path="url(#893efdfb7b)"><path fill="#6c9bcf" d="M 231.804688 171.574219 L 273.464844 163.527344 C 274.300781 163.40625 275.15625 163.5625 275.894531 163.976562 L 336.351562 198 C 337.5625 198.679688 337.476562 200.425781 336.210938 200.929688 L 308.609375 213.867188 L 231.804688 171.574219 " fill-opacity="1" fill-rule="nonzero"/></g><path fill="#aac4ff" d="M 157.628906 214.613281 L 231.976562 183.03125 L 302.765625 215.519531 C 303.605469 215.90625 304.574219 215.902344 305.398438 215.507812 L 314.578125 211.117188 L 231.804688 171.574219 L 151.109375 210.0625 C 150.570312 210.320312 150.5 211.050781 150.980469 211.390625 L 155.207031 214.363281 C 155.910156 214.859375 156.828125 214.953125 157.628906 214.613281 " fill-opacity="1" fill-rule="nonzero"/><path fill="#6c9bcf" d="M 311.476562 210.476562 L 234.542969 172.683594 L 311.476562 210.476562 " fill-opacity="1" fill-rule="nonzero"/><path fill="#000000" d="M 311.476562 211.035156 C 311.394531 211.035156 311.3125 211.015625 311.230469 210.976562 L 234.300781 173.191406 C 234.019531 173.054688 233.90625 172.714844 234.042969 172.4375 C 234.179688 172.160156 234.515625 172.042969 234.792969 172.183594 L 311.726562 209.972656 C 312.003906 210.109375 312.117188 210.445312 311.980469 210.722656 C 311.882812 210.921875 311.683594 211.035156 311.476562 211.035156 " fill-opacity="1" fill-rule="nonzero"/><path fill="#ffffff" d="M 153.144531 217.78125 C 153.03125 218.085938 141.089844 230.183594 141.089844 230.183594 L 148.429688 233.546875 L 158.089844 223.011719 L 153.144531 217.78125 " fill-opacity="1" fill-rule="nonzero"/><path fill="#000000" d="M 142.054688 230.007812 L 148.292969 232.867188 L 157.324219 223.019531 L 153.152344 218.609375 C 152.230469 219.621094 149.613281 222.347656 142.054688 230.007812 Z M 148.429688 234.105469 C 148.351562 234.105469 148.273438 234.089844 148.199219 234.054688 L 140.859375 230.695312 C 140.691406 230.621094 140.574219 230.46875 140.539062 230.289062 C 140.507812 230.105469 140.5625 229.921875 140.691406 229.789062 C 145.261719 225.160156 152.183594 218.101562 152.664062 217.492188 C 152.742188 217.359375 152.875 217.265625 153.03125 217.234375 C 153.222656 217.195312 153.417969 217.257812 153.550781 217.398438 L 158.5 222.628906 C 158.699219 222.839844 158.703125 223.175781 158.503906 223.390625 L 148.84375 233.925781 C 148.738281 234.042969 148.585938 234.105469 148.429688 234.105469 " fill-opacity="1" fill-rule="nonzero"/><path fill="#ffffff" d="M 148.839844 228.375 C 148.585938 227.726562 148.125 226.96875 147.289062 226.460938 C 146.03125 225.691406 144.414062 225.84375 143.230469 226.722656 C 140.277344 228.925781 132.242188 235.164062 127.550781 241.304688 C 125.894531 243.472656 126.632812 246.390625 130.292969 246.390625 C 136.289062 246.390625 145.882812 244.089844 153.972656 237.328125 C 154.902344 236.550781 155.382812 235.359375 155.226562 234.15625 C 155.097656 233.175781 154.863281 231.949219 154.453125 230.78125 C 154.058594 229.667969 152.898438 229.015625 151.738281 229.226562 L 150.6875 229.414062 C 149.902344 229.558594 149.128906 229.121094 148.839844 228.375 " fill-opacity="1" fill-rule="nonzero"/><path fill="#000000" d="M 145.496094 226.527344 C 144.828125 226.527344 144.140625 226.746094 143.566406 227.175781 C 140.417969 229.515625 132.597656 235.621094 128 241.644531 C 127.273438 242.59375 127.074219 243.699219 127.484375 244.523438 C 127.898438 245.367188 128.898438 245.828125 130.292969 245.828125 C 130.292969 245.828125 130.296875 245.828125 130.296875 245.828125 C 136.402344 245.828125 145.730469 243.484375 153.613281 236.898438 C 154.40625 236.234375 154.800781 235.238281 154.667969 234.230469 C 154.507812 233.011719 154.257812 231.914062 153.921875 230.96875 C 153.621094 230.117188 152.742188 229.613281 151.835938 229.777344 L 150.789062 229.96875 C 149.742188 230.15625 148.703125 229.574219 148.320312 228.578125 C 148.035156 227.851562 147.589844 227.300781 146.996094 226.941406 C 146.546875 226.664062 146.027344 226.527344 145.496094 226.527344 Z M 130.296875 246.953125 C 130.296875 246.953125 130.296875 246.953125 130.292969 246.953125 C 127.804688 246.953125 126.835938 245.742188 126.476562 245.019531 C 125.878906 243.808594 126.121094 242.253906 127.105469 240.964844 C 131.792969 234.828125 139.710938 228.644531 142.898438 226.273438 C 144.289062 225.238281 146.171875 225.121094 147.582031 225.980469 C 148.378906 226.46875 148.996094 227.226562 149.363281 228.171875 C 149.554688 228.667969 150.070312 228.957031 150.589844 228.863281 L 151.636719 228.675781 C 153.089844 228.410156 154.496094 229.21875 154.980469 230.597656 C 155.339844 231.613281 155.609375 232.789062 155.78125 234.082031 C 155.960938 235.472656 155.421875 236.847656 154.332031 237.757812 C 146.222656 244.535156 136.601562 246.953125 130.296875 246.953125 " fill-opacity="1" fill-rule="nonzero"/><path fill="#000000" d="M 132.371094 244.09375 C 129.910156 244.09375 128.75 243.4375 128.640625 243.371094 C 128.375 243.210938 128.289062 242.867188 128.449219 242.601562 C 128.605469 242.335938 128.949219 242.25 129.210938 242.40625 C 129.300781 242.457031 135.707031 245.863281 151.878906 234.945312 C 152.132812 234.769531 152.480469 234.835938 152.65625 235.09375 C 152.828125 235.347656 152.761719 235.699219 152.503906 235.871094 C 142.4375 242.671875 135.996094 244.09375 132.371094 244.09375 " fill-opacity="1" fill-rule="nonzero"/><path fill="#000000" d="M 138.558594 237.707031 C 138.394531 237.707031 138.238281 237.636719 138.125 237.503906 L 135.269531 234.0625 C 135.070312 233.824219 135.101562 233.46875 135.339844 233.273438 C 135.578125 233.074219 135.933594 233.109375 136.128906 233.347656 L 138.988281 236.785156 C 139.1875 237.023438 139.152344 237.378906 138.914062 237.574219 C 138.808594 237.664062 138.683594 237.707031 138.558594 237.707031 " fill-opacity="1" fill-rule="nonzero"/><path fill="#000000" d="M 141.363281 235.644531 C 141.207031 235.644531 141.054688 235.578125 140.945312 235.453125 L 137.785156 231.90625 C 137.578125 231.671875 137.597656 231.320312 137.828125 231.113281 C 138.058594 230.90625 138.414062 230.925781 138.621094 231.160156 L 141.78125 234.707031 C 141.988281 234.941406 141.96875 235.292969 141.734375 235.5 C 141.628906 235.597656 141.496094 235.644531 141.363281 235.644531 " fill-opacity="1" fill-rule="nonzero"/><path fill="#ffffff" d="M 176.238281 225.855469 L 178.867188 241.207031 L 184.78125 237.195312 L 182.949219 222.476562 L 176.238281 225.855469 " fill-opacity="1" fill-rule="nonzero"/><path fill="#000000" d="M 176.859375 226.167969 L 179.273438 240.253906 L 184.183594 236.921875 L 182.492188 223.332031 Z M 178.867188 241.769531 C 178.792969 241.769531 178.71875 241.753906 178.648438 241.722656 C 178.472656 241.648438 178.347656 241.492188 178.316406 241.300781 L 175.683594 225.949219 C 175.644531 225.707031 175.765625 225.464844 175.984375 225.355469 L 182.699219 221.972656 C 182.859375 221.890625 183.050781 221.894531 183.210938 221.980469 C 183.375 222.066406 183.484375 222.222656 183.503906 222.40625 L 185.339844 237.125 C 185.363281 237.332031 185.269531 237.539062 185.097656 237.65625 L 179.183594 241.671875 C 179.089844 241.734375 178.976562 241.769531 178.867188 241.769531 " fill-opacity="1" fill-rule="nonzero"/><path fill="#ffffff" d="M 177.058594 238.351562 C 177.148438 243.089844 177.46875 252.625 180.671875 259.546875 C 181.53125 261.402344 185.277344 261.472656 186.769531 259.085938 C 189.878906 254.109375 193.96875 245.585938 192.414062 234.941406 C 192.292969 234.109375 191.78125 233.382812 191.039062 232.992188 C 190.167969 232.527344 188.785156 231.933594 186.792969 231.457031 C 185.800781 231.21875 184.8125 231.871094 184.636719 232.875 L 183.984375 236.5625 L 183.546875 235.921875 C 182.886719 234.953125 181.652344 234.566406 180.554688 234.976562 C 179.964844 235.199219 179.3125 235.441406 178.726562 235.664062 C 177.625 236.078125 177.039062 237.175781 177.058594 238.351562 " fill-opacity="1" fill-rule="nonzero"/><path fill="#000000" d="M 181.449219 235.375 C 181.21875 235.375 180.980469 235.414062 180.753906 235.503906 L 178.921875 236.191406 C 178.097656 236.5 177.601562 237.324219 177.621094 238.339844 C 177.691406 242.128906 177.886719 252.191406 181.179688 259.3125 C 181.449219 259.890625 182.179688 260.289062 183.085938 260.34375 C 184.074219 260.40625 185.515625 260.035156 186.292969 258.789062 C 191.15625 251.007812 193.027344 243.011719 191.859375 235.023438 C 191.765625 234.367188 191.359375 233.796875 190.773438 233.484375 C 189.992188 233.070312 188.644531 232.476562 186.664062 232.003906 C 186.335938 231.921875 186 231.980469 185.71875 232.167969 C 185.433594 232.355469 185.246094 232.640625 185.1875 232.972656 L 184.535156 236.65625 C 184.496094 236.882812 184.324219 237.058594 184.101562 237.109375 C 183.878906 237.15625 183.652344 237.066406 183.523438 236.878906 L 183.082031 236.238281 C 182.703125 235.683594 182.089844 235.375 181.449219 235.375 Z M 183.316406 261.472656 C 183.214844 261.472656 183.117188 261.46875 183.015625 261.464844 C 181.679688 261.378906 180.609375 260.75 180.164062 259.78125 C 177.121094 253.207031 176.613281 244.410156 176.5 238.363281 C 176.472656 236.878906 177.265625 235.613281 178.527344 235.140625 L 180.359375 234.453125 C 181.523438 234.015625 182.8125 234.316406 183.660156 235.179688 L 184.082031 232.777344 C 184.195312 232.144531 184.566406 231.582031 185.101562 231.230469 C 185.636719 230.878906 186.300781 230.761719 186.921875 230.914062 C 189.019531 231.414062 190.460938 232.050781 191.300781 232.496094 C 192.199219 232.972656 192.824219 233.855469 192.96875 234.859375 C 194.175781 243.121094 192.25 251.371094 187.246094 259.382812 C 186.4375 260.671875 184.921875 261.472656 183.316406 261.472656 " fill-opacity="1" fill-rule="nonzero"/><path fill="#000000" d="M 183.878906 258.546875 C 183.765625 258.546875 183.652344 258.511719 183.554688 258.441406 C 183.304688 258.261719 183.242188 257.910156 183.421875 257.660156 C 190.363281 247.96875 189.523438 235.933594 189.515625 235.8125 C 189.492188 235.503906 189.71875 235.234375 190.027344 235.210938 C 190.34375 235.1875 190.609375 235.417969 190.632812 235.726562 C 190.671875 236.234375 191.519531 248.28125 184.335938 258.3125 C 184.226562 258.464844 184.054688 258.546875 183.878906 258.546875 " fill-opacity="1" fill-rule="nonzero"/><path fill="#000000" d="M 177.871094 245.445312 C 177.613281 245.445312 177.382812 245.269531 177.324219 245.007812 C 177.253906 244.707031 177.445312 244.40625 177.746094 244.335938 L 182.230469 243.304688 C 182.53125 243.234375 182.835938 243.421875 182.90625 243.726562 C 182.972656 244.027344 182.785156 244.328125 182.484375 244.398438 L 177.996094 245.429688 C 177.953125 245.4375 177.910156 245.445312 177.871094 245.445312 " fill-opacity="1" fill-rule="nonzero"/><path fill="#000000" d="M 178.511719 249.332031 C 178.273438 249.332031 178.050781 249.179688 177.976562 248.9375 C 177.882812 248.644531 178.046875 248.328125 178.34375 248.234375 L 182.597656 246.894531 C 182.894531 246.800781 183.210938 246.964844 183.304688 247.257812 C 183.394531 247.554688 183.230469 247.867188 182.9375 247.960938 L 178.679688 249.304688 C 178.625 249.324219 178.566406 249.332031 178.511719 249.332031 " fill-opacity="1" fill-rule="nonzero"/><path fill="#000000" d="M 218.519531 158.667969 C 218.519531 158.667969 197.511719 155.003906 177.871094 164.742188 C 172.921875 167.195312 169.699219 172.144531 169.429688 177.664062 C 168.894531 188.613281 168.96875 208.691406 174.730469 226.429688 C 175.058594 227.441406 176.164062 227.96875 177.160156 227.59375 L 185.9375 224.261719 C 186.53125 224.039062 186.964844 223.535156 187.101562 222.917969 C 187.949219 218.9375 190.910156 203.789062 189.375 192.601562 C 187.789062 181.007812 221.230469 170.699219 228.414062 168.625 C 229.277344 168.375 247.679688 163.46875 247.679688 163.46875 L 218.519531 158.667969 " fill-opacity="1" fill-rule="nonzero"/><path fill="#000000" d="M 150.6875 220.332031 L 158.054688 225.765625 C 158.550781 226.128906 159.230469 226.082031 159.667969 225.652344 C 164.652344 220.753906 192.769531 193.253906 199.636719 189.828125 C 207.171875 186.0625 221.171875 180.539062 233.574219 181.285156 C 245.128906 181.984375 248.617188 174.683594 249.015625 173.675781 C 250.429688 170.089844 250.851562 167.570312 250.851562 167.570312 L 237.957031 158.921875 C 237.957031 158.921875 201.191406 162.976562 187.683594 172.792969 C 175.488281 181.652344 154.375 212.691406 150.390625 218.636719 C 150.019531 219.191406 150.152344 219.933594 150.6875 220.332031 " fill-opacity="1" fill-rule="nonzero"/><path fill="#ffffff" d="M 168.769531 192.945312 C 168.648438 192.945312 168.523438 192.90625 168.417969 192.824219 C 168.179688 192.628906 168.140625 192.277344 168.332031 192.035156 C 173.929688 185.082031 182.574219 175.8125 187.355469 172.339844 C 192.578125 168.542969 200.875 165.492188 212.019531 163.277344 C 212.324219 163.214844 212.621094 163.414062 212.679688 163.714844 C 212.742188 164.019531 212.546875 164.3125 212.242188 164.375 C 201.257812 166.5625 193.105469 169.542969 188.015625 173.246094 C 183.308594 176.664062 174.757812 185.839844 169.207031 192.738281 C 169.09375 192.875 168.933594 192.945312 168.769531 192.945312 " fill-opacity="1" fill-rule="nonzero"/><path fill="#ffffff" d="M 225.832031 123.847656 L 224.398438 129.191406 C 222.691406 135.554688 219.296875 141.335938 214.574219 145.921875 L 212.65625 147.78125 C 211.429688 148.976562 209.839844 149.726562 208.140625 149.917969 L 207.878906 149.949219 C 205.28125 150.242188 202.882812 151.480469 201.136719 153.425781 L 207.242188 154.164062 C 210.964844 154.617188 214.734375 153.613281 217.699219 151.316406 C 220.539062 149.113281 223.878906 145.753906 226.285156 140.957031 C 231.316406 130.90625 231.828125 125.21875 231.828125 125.21875 L 225.832031 123.847656 " fill-opacity="1" fill-rule="nonzero"/><path fill="#000000" d="M 202.347656 153.007812 L 207.3125 153.609375 C 210.945312 154.046875 214.511719 153.078125 217.355469 150.871094 C 220.972656 148.066406 223.808594 144.644531 225.78125 140.707031 C 229.878906 132.519531 230.957031 127.214844 231.207031 125.648438 L 226.234375 124.511719 L 224.941406 129.335938 C 223.210938 135.796875 219.757812 141.671875 214.964844 146.324219 L 213.046875 148.183594 C 211.738281 149.457031 210.019531 150.269531 208.203125 150.476562 L 207.941406 150.503906 C 205.851562 150.742188 203.902344 151.621094 202.347656 153.007812 Z M 209.023438 154.832031 C 208.410156 154.832031 207.792969 154.796875 207.175781 154.722656 L 201.070312 153.984375 C 200.863281 153.957031 200.6875 153.816406 200.613281 153.625 C 200.539062 153.429688 200.578125 153.207031 200.71875 153.050781 C 202.558594 151 205.078125 149.699219 207.816406 149.390625 L 208.078125 149.359375 C 209.644531 149.183594 211.132812 148.480469 212.265625 147.378906 L 214.179688 145.519531 C 218.832031 141.003906 222.175781 135.308594 223.855469 129.046875 L 225.289062 123.699219 C 225.367188 123.410156 225.664062 123.234375 225.957031 123.300781 L 231.957031 124.671875 C 232.230469 124.734375 232.414062 124.988281 232.390625 125.269531 C 232.367188 125.503906 231.808594 131.179688 226.785156 141.210938 C 224.738281 145.296875 221.796875 148.847656 218.042969 151.761719 C 215.449219 153.769531 212.300781 154.832031 209.023438 154.832031 " fill-opacity="1" fill-rule="nonzero"/><path fill="#000000" d="M 242.195312 169.308594 C 242.195312 169.308594 250.558594 173.46875 254.257812 171.09375 C 257.957031 168.722656 249.734375 163.199219 247.652344 163.324219 C 245.570312 163.449219 242.195312 169.308594 242.195312 169.308594 " fill-opacity="1" fill-rule="nonzero"/><path fill="#6c9bcf" d="M 273.316406 128.871094 C 273.316406 128.871094 272.351562 123.859375 271.679688 121.933594 C 267.617188 110.3125 250.453125 109.382812 250.453125 109.382812 C 250.453125 109.382812 233.230469 107.863281 227.910156 115.429688 C 227.476562 116.042969 226.917969 116.75 226.621094 117.507812 L 223.597656 124.75 L 223.640625 124.757812 C 227.722656 125.574219 230.179688 129.792969 228.839844 133.734375 C 227.300781 138.269531 225.011719 143.65625 222.203125 146.257812 C 221.316406 147.078125 213.832031 151.984375 213.832031 151.984375 C 213.832031 151.984375 213.011719 158.445312 226.523438 161.246094 C 240.03125 164.046875 249.507812 164.179688 253.375 170.109375 C 255.664062 173.621094 258.464844 154.136719 259.234375 136.234375 C 259.378906 132.789062 262.035156 129.980469 265.464844 129.640625 L 273.316406 128.871094 " fill-opacity="1" fill-rule="nonzero"/><path fill="#ffffff" d="M 227.632812 154.332031 L 233.355469 151.4375 C 234.203125 151.011719 235.21875 151.054688 236.027344 151.558594 L 239.128906 153.484375 C 239.71875 153.851562 240.429688 153.976562 241.113281 153.835938 C 244.089844 153.226562 257.230469 147.386719 258.296875 144.816406 C 258.824219 143.542969 259.109375 138.679688 259.332031 135.246094 C 259.519531 132.367188 261.761719 130.050781 264.628906 129.769531 L 270.8125 129.167969 C 270.8125 129.167969 271.105469 144.925781 266.714844 150.347656 C 263.308594 154.558594 254.363281 157.644531 240.921875 158.648438 C 240.921875 158.648438 238.09375 158.714844 235.378906 156.242188 C 233.648438 154.664062 230.136719 156.074219 227.910156 155.835938 C 227.117188 155.753906 226.921875 154.691406 227.632812 154.332031 " fill-opacity="1" fill-rule="nonzero"/><path fill="#000000" d="M 232.867188 154.925781 C 233.957031 154.925781 234.988281 155.125 235.757812 155.828125 C 238.277344 158.117188 240.886719 158.085938 240.910156 158.089844 C 253.628906 157.136719 262.886719 154.1875 266.28125 149.996094 C 270.011719 145.382812 270.253906 132.710938 270.253906 129.785156 L 264.683594 130.328125 C 262.074219 130.582031 260.058594 132.667969 259.886719 135.28125 L 259.851562 135.910156 C 259.5625 140.351562 259.308594 143.84375 258.816406 145.03125 C 257.632812 147.890625 244.148438 153.789062 241.222656 154.386719 C 240.394531 154.554688 239.546875 154.402344 238.832031 153.960938 L 235.734375 152.035156 C 235.09375 151.636719 234.277344 151.601562 233.605469 151.941406 L 227.882812 154.832031 C 227.746094 154.902344 227.746094 155.019531 227.757812 155.085938 C 227.769531 155.152344 227.8125 155.265625 227.964844 155.28125 C 228.679688 155.355469 229.570312 155.242188 230.511719 155.121094 C 231.277344 155.027344 232.085938 154.925781 232.867188 154.925781 Z M 240.917969 159.210938 C 240.496094 159.210938 237.699219 159.109375 235.003906 156.65625 C 234.066406 155.804688 232.332031 156.023438 230.652344 156.238281 C 229.644531 156.363281 228.691406 156.488281 227.847656 156.394531 C 227.242188 156.332031 226.761719 155.886719 226.652344 155.289062 C 226.542969 154.691406 226.835938 154.105469 227.378906 153.832031 L 227.628906 154.332031 L 227.378906 153.832031 L 233.101562 150.941406 C 234.117188 150.425781 235.355469 150.480469 236.324219 151.082031 L 239.425781 153.007812 C 239.894531 153.296875 240.453125 153.394531 241 153.289062 C 244.273438 152.617188 256.875 146.785156 257.777344 144.601562 C 258.238281 143.492188 258.535156 138.886719 258.730469 135.839844 L 258.769531 135.210938 C 258.976562 132.042969 261.417969 129.519531 264.574219 129.214844 L 270.757812 128.609375 C 270.914062 128.597656 271.070312 128.644531 271.1875 128.75 C 271.304688 128.851562 271.371094 129.003906 271.375 129.15625 C 271.386719 129.808594 271.617188 145.183594 267.152344 150.703125 C 263.511719 155.199219 254.210938 158.21875 240.964844 159.207031 C 240.957031 159.210938 240.941406 159.210938 240.917969 159.210938 " fill-opacity="1" fill-rule="nonzero"/><path fill="#000000" d="M 250.320312 84.128906 C 252.953125 85.953125 251.664062 87.820312 255.21875 92.226562 C 257.828125 95.460938 259.875 96.125 260 98.382812 C 260.113281 100.414062 258.574219 102.015625 257.558594 103.070312 C 252.941406 107.867188 246.023438 107.992188 241.773438 108.070312 C 238.335938 108.132812 233.625 108.222656 232.800781 106.136719 C 231.984375 104.078125 235.898438 102.277344 235.898438 98.074219 C 235.898438 94.695312 233.363281 93.96875 233.65625 90.949219 C 234.035156 87.042969 238.625 84.671875 239.363281 84.292969 C 242.320312 82.765625 247.074219 81.878906 250.320312 84.128906 " fill-opacity="1" fill-rule="nonzero"/><path fill="#000000" d="M 247.445312 84.015625 C 247.445312 84.015625 245.25 77.789062 250.628906 76.84375 C 256.003906 75.902344 254.195312 83.011719 250.972656 85.253906 C 247.75 87.492188 247.445312 84.015625 247.445312 84.015625 " fill-opacity="1" fill-rule="nonzero"/><path fill="#ffffff" d="M 255.898438 112.246094 C 256.007812 110.792969 252.402344 110.414062 251.449219 109.097656 C 249.90625 106.949219 249.011719 104.875 246.871094 100.082031 C 246.738281 99.78125 246.632812 99.472656 246.867188 99.230469 C 247.46875 98.605469 248.433594 97.339844 248.132812 95.910156 C 247.984375 95.191406 247.453125 94.152344 246.753906 94.132812 C 246.261719 94.117188 245.707031 94.613281 245.367188 95.457031 C 245.183594 95.90625 244.570312 95.972656 244.296875 95.574219 C 244.296875 95.570312 244.292969 95.566406 244.289062 95.5625 C 244.015625 95.167969 243.75 94.71875 243.636719 94.34375 C 243.558594 94.089844 243.308594 93.925781 243.042969 93.925781 C 237.691406 93.898438 240.351562 87.386719 236.851562 88.429688 C 236.714844 88.46875 236.601562 88.566406 236.523438 88.6875 C 236.058594 89.40625 235.722656 89.734375 235.355469 90.453125 C 234.589844 91.96875 234.683594 95.511719 233.144531 97.066406 C 232.976562 97.238281 232.933594 97.503906 233.03125 97.722656 C 233.289062 98.304688 233.835938 98.371094 234.289062 98.605469 C 234.46875 98.699219 234.582031 98.894531 234.589844 99.101562 C 234.628906 99.953125 234.941406 101.90625 235.074219 103.410156 C 235.15625 104.347656 235.945312 105.074219 236.882812 105.058594 C 237.644531 105.046875 238.441406 104.945312 239.273438 104.738281 C 239.4375 104.699219 240.445312 104.351562 240.519531 104.5 C 241.757812 106.992188 242.261719 107.816406 243.296875 110.492188 C 243.394531 110.742188 240.582031 110.898438 240.632812 111.203125 C 241.027344 113.550781 244.1875 115.488281 248.679688 114.964844 C 255.824219 114.128906 255.898438 112.246094 255.898438 112.246094 " fill-opacity="1" fill-rule="nonzero"/><path fill="#000000" d="M 255.34375 112.164062 Z M 255.339844 112.21875 Z M 255.339844 112.21875 Z M 255.339844 112.21875 C 255.339844 112.21875 255.339844 112.222656 255.335938 112.222656 C 255.339844 112.222656 255.339844 112.21875 255.339844 112.21875 Z M 241.292969 111.515625 C 241.921875 113.347656 244.683594 114.863281 248.617188 114.40625 C 254.558594 113.710938 255.28125 112.328125 255.339844 112.175781 C 255.328125 111.765625 254.300781 111.324219 253.476562 110.972656 C 252.507812 110.558594 251.503906 110.128906 251 109.421875 C 249.492188 107.332031 248.605469 105.339844 246.65625 100.972656 L 246.363281 100.308594 C 246.25 100.054688 245.949219 99.378906 246.464844 98.839844 C 246.988281 98.292969 247.832031 97.199219 247.585938 96.023438 C 247.441406 95.328125 246.992188 94.699219 246.742188 94.691406 C 246.738281 94.691406 246.738281 94.691406 246.734375 94.691406 C 246.546875 94.691406 246.160156 94.992188 245.886719 95.667969 C 245.722656 96.066406 245.355469 96.34375 244.925781 96.390625 C 244.5 96.4375 244.082031 96.246094 243.835938 95.890625 C 243.460938 95.34375 243.21875 94.882812 243.101562 94.503906 C 243.097656 94.5 243.074219 94.484375 243.039062 94.484375 C 239.714844 94.46875 239.046875 92.109375 238.605469 90.546875 C 238.402344 89.824219 238.207031 89.136719 237.855469 88.945312 C 237.675781 88.84375 237.394531 88.851562 237.011719 88.960938 C 237.019531 88.960938 237.003906 88.972656 236.996094 88.988281 C 236.808594 89.28125 236.636719 89.515625 236.488281 89.71875 C 236.257812 90.035156 236.0625 90.304688 235.859375 90.703125 C 235.601562 91.214844 235.441406 92.0625 235.269531 92.960938 C 234.960938 94.5625 234.613281 96.378906 233.546875 97.460938 C 233.644531 97.71875 233.8125 97.792969 234.15625 97.933594 C 234.289062 97.984375 234.417969 98.039062 234.542969 98.105469 C 234.898438 98.289062 235.132812 98.660156 235.152344 99.074219 C 235.167969 99.492188 235.265625 100.242188 235.367188 101.035156 C 235.464844 101.78125 235.570312 102.628906 235.636719 103.359375 C 235.695312 104.007812 236.230469 104.507812 236.875 104.496094 C 237.609375 104.484375 238.371094 104.382812 239.144531 104.195312 C 239.167969 104.1875 239.226562 104.171875 239.292969 104.148438 C 240.109375 103.898438 240.75 103.699219 241.023438 104.246094 C 241.28125 104.769531 241.511719 105.21875 241.714844 105.628906 C 242.484375 107.144531 242.992188 108.148438 243.824219 110.285156 C 243.882812 110.441406 243.863281 110.652344 243.78125 110.800781 C 243.585938 111.140625 243.164062 111.207031 242.148438 111.367188 C 241.902344 111.402344 241.550781 111.460938 241.292969 111.515625 Z M 247.1875 115.613281 C 243.03125 115.613281 240.453125 113.515625 240.082031 111.292969 C 240.050781 111.128906 240.09375 110.964844 240.191406 110.828125 C 240.40625 110.527344 240.804688 110.441406 241.972656 110.257812 C 242.152344 110.230469 242.375 110.195312 242.566406 110.160156 C 241.882812 108.4375 241.425781 107.539062 240.714844 106.132812 C 240.550781 105.808594 240.375 105.457031 240.175781 105.0625 C 239.980469 105.109375 239.726562 105.1875 239.625 105.222656 C 239.523438 105.25 239.449219 105.273438 239.40625 105.285156 C 238.558594 105.492188 237.710938 105.601562 236.890625 105.617188 C 235.675781 105.636719 234.625 104.6875 234.519531 103.460938 C 234.457031 102.75 234.347656 101.914062 234.253906 101.175781 C 234.144531 100.324219 234.050781 99.589844 234.03125 99.125 C 233.933594 99.050781 233.835938 99.011719 233.734375 98.972656 C 233.34375 98.8125 232.808594 98.59375 232.519531 97.949219 C 232.328125 97.515625 232.421875 97.003906 232.75 96.671875 C 233.578125 95.832031 233.890625 94.195312 234.167969 92.75 C 234.351562 91.773438 234.53125 90.847656 234.859375 90.199219 C 235.101562 89.71875 235.335938 89.398438 235.582031 89.0625 C 235.730469 88.859375 235.882812 88.648438 236.050781 88.382812 C 236.207031 88.140625 236.433594 87.964844 236.695312 87.886719 C 237.378906 87.683594 237.9375 87.707031 238.398438 87.960938 C 239.160156 88.382812 239.417969 89.285156 239.683594 90.242188 C 240.136719 91.839844 240.566406 93.351562 243.046875 93.363281 C 243.5625 93.363281 244.027344 93.699219 244.171875 94.175781 C 244.230469 94.363281 244.375 94.699219 244.753906 95.246094 C 244.765625 95.261719 244.777344 95.277344 244.804688 95.273438 C 244.835938 95.273438 244.84375 95.253906 244.847656 95.246094 C 245.273438 94.191406 245.992188 93.546875 246.769531 93.570312 C 247.839844 93.597656 248.5 94.917969 248.6875 95.796875 C 249.03125 97.457031 247.972656 98.878906 247.292969 99.59375 C 247.300781 99.632812 247.320312 99.707031 247.386719 99.851562 L 247.683594 100.519531 C 249.597656 104.8125 250.46875 106.769531 251.90625 108.765625 C 252.230469 109.21875 253.125 109.605469 253.914062 109.941406 C 255.207031 110.496094 256.542969 111.066406 256.460938 112.277344 C 256.429688 112.84375 255.769531 114.695312 248.746094 115.519531 C 248.207031 115.582031 247.683594 115.613281 247.1875 115.613281 " fill-opacity="1" fill-rule="nonzero"/><path fill="#000000" d="M 239.273438 105.300781 C 239.019531 105.300781 238.785156 105.125 238.726562 104.863281 C 238.660156 104.558594 238.851562 104.257812 239.152344 104.191406 C 241.535156 103.660156 243.019531 101.8125 243.035156 101.792969 C 243.226562 101.550781 243.578125 101.507812 243.824219 101.699219 C 244.066406 101.890625 244.109375 102.242188 243.917969 102.484375 C 243.847656 102.574219 242.179688 104.664062 239.398438 105.289062 C 239.355469 105.296875 239.316406 105.300781 239.273438 105.300781 " fill-opacity="1" fill-rule="nonzero"/><path fill="#aac4ff" d="M 193.753906 162.683594 L 223.523438 162.875 L 205.203125 134.609375 C 204.519531 133.539062 203.320312 132.890625 202.03125 132.882812 L 177.871094 132.726562 C 176.335938 132.714844 175.394531 134.351562 176.207031 135.617188 L 193.753906 162.683594 " fill-opacity="1" fill-rule="nonzero"/><path fill="#000000" d="M 194.058594 162.121094 L 222.488281 162.304688 L 204.734375 134.910156 C 204.144531 133.996094 203.136719 133.449219 202.027344 133.441406 L 177.867188 133.285156 C 177.863281 133.285156 177.863281 133.285156 177.859375 133.285156 C 177.335938 133.285156 176.878906 133.550781 176.632812 133.996094 C 176.398438 134.414062 176.417969 134.910156 176.679688 135.316406 Z M 224.558594 163.441406 L 193.449219 163.242188 L 175.734375 135.925781 C 175.246094 135.164062 175.21875 134.242188 175.648438 133.453125 C 176.089844 132.65625 176.933594 132.164062 177.859375 132.164062 C 177.863281 132.164062 177.871094 132.164062 177.875 132.164062 L 202.035156 132.320312 C 203.523438 132.332031 204.886719 133.070312 205.675781 134.304688 L 224.558594 163.441406 " fill-opacity="1" fill-rule="nonzero"/><path fill="#ffffff" d="M 196.636719 148.183594 C 197.289062 149.203125 198.703125 150.035156 199.792969 150.042969 C 200.886719 150.050781 201.238281 149.230469 200.585938 148.210938 C 199.929688 147.1875 198.519531 146.355469 197.425781 146.351562 C 196.335938 146.34375 195.980469 147.164062 196.636719 148.183594 " fill-opacity="1" fill-rule="nonzero"/><path fill="#aac4ff" d="M 195.0625 165.261719 L 234.613281 165.523438 C 235.152344 165.523438 235.632812 164.941406 235.894531 164.070312 C 236.121094 163.324219 235.570312 162.566406 234.789062 162.5625 L 193.601562 162.285156 C 193.59375 163.921875 194.246094 165.253906 195.0625 165.261719 " fill-opacity="1" fill-rule="nonzero"/><path fill="#000000" d="M 195.066406 164.699219 L 234.613281 164.960938 L 234.617188 164.960938 C 234.824219 164.960938 235.152344 164.59375 235.359375 163.910156 C 235.414062 163.722656 235.382812 163.523438 235.265625 163.363281 C 235.152344 163.210938 234.976562 163.121094 234.785156 163.121094 L 194.1875 162.851562 C 194.304688 164.050781 194.792969 164.699219 195.066406 164.699219 Z M 234.617188 166.082031 C 234.613281 166.082031 234.609375 166.082031 234.609375 166.082031 L 195.058594 165.820312 C 193.898438 165.8125 193.027344 164.292969 193.039062 162.28125 L 193.046875 161.722656 L 234.792969 162 C 235.339844 162.003906 235.84375 162.257812 236.167969 162.699219 C 236.496094 163.144531 236.59375 163.703125 236.433594 164.234375 C 236.082031 165.394531 235.40625 166.082031 234.617188 166.082031 " fill-opacity="1" fill-rule="nonzero"/><path fill="#6c9bcf" d="M 336.335938 87.042969 C 336.335938 101.265625 313.660156 135.449219 308.226562 143.4375 C 307.667969 144.253906 306.464844 144.253906 305.90625 143.433594 C 302.015625 137.710938 289.285156 118.566406 282.371094 102.933594 C 279.625 96.730469 277.796875 91.082031 277.796875 87.042969 C 277.796875 70.882812 290.902344 57.78125 307.070312 57.78125 C 323.230469 57.78125 336.335938 70.882812 336.335938 87.042969 " fill-opacity="1" fill-rule="nonzero"/><path fill="#ffffff" d="M 320.449219 87.039062 C 320.449219 94.429688 314.460938 100.417969 307.066406 100.417969 C 299.675781 100.417969 293.683594 94.429688 293.683594 87.039062 C 293.683594 79.648438 299.675781 73.660156 307.066406 73.660156 C 314.460938 73.660156 320.449219 79.648438 320.449219 87.039062 " fill-opacity="1" fill-rule="nonzero"/><path fill="#000000" d="M 309.664062 99.4375 C 306.582031 99.4375 303.609375 98.425781 301.140625 96.507812 C 298.195312 94.222656 296.320312 90.933594 295.855469 87.238281 C 295.816406 86.929688 296.035156 86.648438 296.339844 86.609375 C 296.648438 86.574219 296.929688 86.792969 296.96875 87.097656 C 297.398438 90.496094 299.121094 93.523438 301.828125 95.621094 C 304.53125 97.722656 307.894531 98.644531 311.292969 98.214844 C 314.691406 97.785156 317.71875 96.0625 319.816406 93.355469 C 321.921875 90.652344 322.839844 87.292969 322.414062 83.894531 C 321.984375 80.496094 320.257812 77.472656 317.554688 75.371094 C 315.40625 73.703125 312.835938 72.773438 310.125 72.683594 C 309.816406 72.671875 309.574219 72.414062 309.585938 72.105469 C 309.597656 71.796875 309.851562 71.554688 310.164062 71.566406 C 313.113281 71.660156 315.902344 72.671875 318.242188 74.484375 C 321.183594 76.769531 323.0625 80.058594 323.523438 83.753906 C 323.992188 87.449219 322.992188 91.101562 320.707031 94.042969 C 318.421875 96.984375 315.128906 98.859375 311.433594 99.324219 C 310.84375 99.402344 310.25 99.4375 309.664062 99.4375 " fill-opacity="1" fill-rule="nonzero"/></svg>